# Blender v2.78 (sub 0) OBJ File: 'Shelf.blend'
# www.blender.org
mtllib Shelf.mtl
o Cube
v 1.000000 0.000000 -3.000000
v 1.000000 0.000000 3.000000
v -1.000000 0.000000 3.000000
v -1.000000 0.000000 -3.000000
v 1.000000 2.000000 -3.000000
v 0.999999 2.000000 3.000000
v -1.000000 2.285720 3.000000
v -1.000000 2.285720 -3.000000
v 1.000000 0.000000 -2.142857
v 1.000000 0.000000 -1.285714
v 1.000000 0.000000 -0.428571
v 1.000000 0.000000 0.428572
v 1.000000 0.000000 1.285714
v 1.000000 0.000000 2.142857
v 0.714286 0.000000 -3.000000
v 0.428571 0.000000 -3.000000
v 0.142857 0.000000 -3.000000
v -0.142857 0.000000 -3.000000
v -0.428571 0.000000 -3.000000
v -0.714285 0.000000 -3.000000
v 1.000000 0.285714 -3.000000
v 1.000000 0.571429 -3.000000
v 1.000000 0.857143 -3.000000
v 1.000000 1.142857 -3.000000
v 1.000000 1.428571 -3.000000
v 1.000000 1.714286 -3.000000
v 0.714286 0.000000 3.000000
v 0.428571 0.000000 3.000000
v 0.142857 0.000000 3.000000
v -0.142857 0.000000 3.000000
v -0.428572 0.000000 3.000000
v -0.714286 0.000000 3.000000
v 1.000000 0.285714 3.000000
v 1.000000 0.571429 3.000000
v 1.000000 0.857143 3.000000
v 1.000000 1.142857 3.000000
v 1.000000 1.428571 3.000000
v 0.999999 1.714286 3.000000
v -1.000000 0.000000 2.142857
v -1.000000 0.000000 1.285714
v -1.000000 0.000000 0.428571
v -1.000000 0.000000 -0.428572
v -1.000000 0.000000 -1.285715
v -1.000000 0.000000 -2.142858
v -1.000000 0.285714 3.000000
v -1.000000 0.571429 3.000000
v -1.000000 0.857143 3.000000
v -1.000000 1.142857 3.000000
v -1.000000 1.428571 3.000000
v -1.000000 1.714286 3.000000
v -1.000000 0.285714 -3.000000
v -1.000000 0.571429 -3.000000
v -1.000000 0.857143 -3.000000
v -1.000000 1.142857 -3.000000
v -1.000000 1.428571 -3.000000
v -1.000000 1.714286 -3.000000
v 1.000000 2.000000 -2.142857
v 1.000000 2.000000 -1.285714
v 1.000000 2.000000 -0.428571
v 1.000000 2.000000 0.428572
v 1.000000 2.000000 1.285715
v 1.000000 2.000000 2.142858
v 0.714286 2.000000 -3.000000
v 0.428572 2.000000 -3.000000
v 0.142857 2.000000 -3.000000
v -0.142857 2.000000 -3.000000
v -0.428571 2.000000 -3.000000
v -0.714286 2.285720 -3.000000
v 0.714285 2.000000 3.000000
v 0.428571 2.000000 3.000000
v 0.142857 2.000000 3.000000
v -0.142858 2.000000 3.000000
v -0.428572 2.000000 3.000000
v -0.714286 2.285720 3.000000
v -1.000000 2.285720 2.142857
v -1.000000 2.285720 1.285714
v -1.000000 2.285720 0.428571
v -1.000000 2.285720 -0.428572
v -1.000000 2.285720 -1.285715
v -1.000000 2.285720 -2.142857
v 0.714286 1.714286 -3.000000
v 0.428572 1.714286 -3.000000
v 0.142857 1.714286 -3.000000
v -0.142857 1.714286 -3.000000
v -0.428571 1.714286 -3.000000
v -0.714286 1.714286 -3.000000
v 0.714286 1.428571 -3.000000
v 0.428572 1.428571 -3.000000
v 0.142857 1.428571 -3.000000
v -0.142857 1.428571 -3.000000
v -0.428571 1.428571 -3.000000
v -0.714286 1.428571 -3.000000
v 0.714286 1.142857 -3.000000
v 0.428572 1.142857 -3.000000
v 0.142857 1.142857 -3.000000
v -0.142857 1.142857 -3.000000
v -0.428571 1.142857 -3.000000
v -0.714286 1.142857 -3.000000
v 0.714286 0.857143 -3.000000
v 0.428572 0.857143 -3.000000
v 0.142857 0.857143 -3.000000
v -0.142857 0.857143 -3.000000
v -0.428571 0.857143 -3.000000
v -0.714285 0.857143 -3.000000
v 0.714286 0.571429 -3.000000
v 0.428572 0.571429 -3.000000
v 0.142857 0.571429 -3.000000
v -0.142857 0.571429 -3.000000
v -0.428571 0.571429 -3.000000
v -0.714285 0.571429 -3.000000
v 0.714286 0.285714 -3.000000
v 0.428572 0.285714 -3.000000
v 0.142857 0.285714 -3.000000
v -0.142857 0.285714 -3.000000
v -0.428571 0.285714 -3.000000
v -0.714285 0.285714 -3.000000
v 0.714286 0.285714 3.000000
v 0.428571 0.285714 3.000000
v 0.142857 0.285714 3.000000
v -0.142857 0.285714 3.000000
v -0.428572 0.285714 3.000000
v -0.714286 0.285714 3.000000
v 0.714285 0.571429 3.000000
v 0.428571 0.571429 3.000000
v 0.142857 0.571429 3.000000
v -0.142857 0.571429 3.000000
v -0.428572 0.571429 3.000000
v -0.714286 0.571429 3.000000
v 0.714285 0.857143 3.000000
v 0.428571 0.857143 3.000000
v 0.142857 0.857143 3.000000
v -0.142857 0.857143 3.000000
v -0.428572 0.857143 3.000000
v -0.714286 0.857143 3.000000
v 0.714285 1.142857 3.000000
v 0.428571 1.142857 3.000000
v 0.142857 1.142857 3.000000
v -0.142857 1.142857 3.000000
v -0.428572 1.142857 3.000000
v -0.714286 1.142857 3.000000
v 0.714285 1.428571 3.000000
v 0.428571 1.428571 3.000000
v 0.142857 1.428571 3.000000
v -0.142857 1.428571 3.000000
v -0.428572 1.428571 3.000000
v -0.714286 1.428571 3.000000
v 0.714285 1.714286 3.000000
v 0.428571 1.714286 3.000000
v 0.142857 1.714286 3.000000
v -0.142858 1.714286 3.000000
v -0.428572 1.714286 3.000000
v -0.714286 1.714286 3.000000
v 1.000000 0.285714 -2.142857
v 1.000000 0.285714 -1.285714
v 1.000000 0.285714 -0.428571
v 1.000000 0.285714 0.428572
v 1.000000 0.285714 1.285714
v 1.000000 0.285714 2.142857
v 1.000000 0.571429 -2.142857
v 1.000000 0.571429 -1.285714
v 1.000000 0.571429 -0.428571
v 1.000000 0.571429 0.428572
v 1.000000 0.571429 1.285714
v 1.000000 0.571429 2.142857
v 1.000000 0.857143 -2.142857
v 1.000000 0.857143 -1.285714
v 1.000000 0.857143 -0.428571
v 1.000000 0.857143 0.428572
v 1.000000 0.857143 1.285714
v 1.000000 0.857143 2.142857
v 1.000000 1.142857 -2.142857
v 1.000000 1.142857 -1.285714
v 1.000000 1.142857 -0.428571
v 1.000000 1.142857 0.428572
v 1.000000 1.142857 1.285714
v 1.000000 1.142857 2.142857
v 1.000000 1.428571 -2.142857
v 1.000000 1.428571 -1.285714
v 1.000000 1.428571 -0.428571
v 1.000000 1.428571 0.428572
v 1.000000 1.428571 1.285715
v 1.000000 1.428571 2.142858
v 1.000000 1.714286 -2.142857
v 1.000000 1.714286 -1.285714
v 1.000000 1.714286 -0.428571
v 1.000000 1.714286 0.428572
v 1.000000 1.714286 1.285715
v 1.000000 1.714286 2.142858
v -0.714286 2.285720 -2.142857
v -0.714286 2.285720 -1.285714
v -0.714286 2.285720 -0.428572
v -0.714286 2.285720 0.428571
v -0.714286 2.285720 1.285714
v -0.714286 2.285720 2.142857
v -0.714286 2.000000 -3.000000
v -1.000000 2.000000 -3.000000
v -0.714286 2.000000 3.000000
v -1.000000 2.000000 3.000000
v -0.714286 2.000000 2.142857
v -0.714286 2.000000 -2.142857
v -0.714286 2.000000 -1.285714
v -0.714286 2.000000 -0.428572
v -0.714286 2.000000 0.428571
v -0.714286 2.000000 1.285714
vt 0.4917 0.5530
vt 0.4917 0.5343
vt 0.4730 0.5343
vt 0.4730 0.5530
vt 0.4917 0.5343
vt 0.4917 0.5157
vt 0.4730 0.5157
vt 0.4730 0.5343
vt 0.4917 0.4970
vt 0.4730 0.4970
vt 0.4917 0.4783
vt 0.4730 0.4783
vt 0.4917 0.4597
vt 0.4730 0.4597
vt 0.4917 0.5903
vt 0.4917 0.5717
vt 0.4730 0.5717
vt 0.4730 0.5903
vt 0.5290 0.5343
vt 0.4730 0.5343
vt 0.4730 0.5157
vt 0.5290 0.5157
vt 0.5850 0.5157
vt 0.6410 0.5157
vt 0.6970 0.5157
vt 0.7530 0.5157
vt 0.8089 0.5157
vt 0.8649 0.5157
vt 0.8649 0.5343
vt 0.8089 0.5343
vt 0.7530 0.5343
vt 0.6970 0.5343
vt 0.6410 0.5343
vt 0.5850 0.5343
vt 0.5290 0.5530
vt 0.4730 0.5530
vt 0.4730 0.5343
vt 0.5290 0.5343
vt 0.5850 0.5343
vt 0.6410 0.5343
vt 0.6970 0.5343
vt 0.7530 0.5343
vt 0.8089 0.5343
vt 0.8649 0.5343
vt 0.8649 0.5530
vt 0.8089 0.5530
vt 0.7530 0.5530
vt 0.6970 0.5530
vt 0.6410 0.5530
vt 0.5850 0.5530
vt 0.4917 0.5157
vt 0.4917 0.5343
vt 0.4917 0.5530
vt 0.4730 0.5530
vt 0.4730 0.5343
vt 0.4730 0.5157
vt 0.4730 0.4970
vt 0.4730 0.4783
vt 0.4730 0.4597
vt 0.4730 0.4410
vt 0.4730 0.4224
vt 0.4730 0.4037
vt 0.4917 0.4037
vt 0.4917 0.4224
vt 0.4917 0.4410
vt 0.4917 0.4597
vt 0.4917 0.4783
vt 0.4917 0.4970
vt 0.5290 0.5530
vt 0.4730 0.5530
vt 0.4730 0.5343
vt 0.5290 0.5343
vt 0.5850 0.5343
vt 0.6410 0.5343
vt 0.6970 0.5343
vt 0.7530 0.5343
vt 0.8089 0.5343
vt 0.8649 0.5343
vt 0.8649 0.5530
vt 0.8089 0.5530
vt 0.7530 0.5530
vt 0.6970 0.5530
vt 0.6410 0.5530
vt 0.5850 0.5530
vt 0.5290 0.5903
vt 0.4730 0.5903
vt 0.4730 0.5717
vt 0.5290 0.5717
vt 0.5850 0.5717
vt 0.6410 0.5717
vt 0.6970 0.5717
vt 0.7530 0.5717
vt 0.8089 0.5717
vt 0.8649 0.5717
vt 0.8649 0.5903
vt 0.8089 0.5903
vt 0.7530 0.5903
vt 0.6970 0.5903
vt 0.6410 0.5903
vt 0.5850 0.5903
vt 0.4730 0.5903
vt 0.4730 0.5717
vt 0.4544 0.5717
vt 0.4357 0.5717
vt 0.4170 0.5717
vt 0.3984 0.5717
vt 0.3797 0.5717
vt 0.3611 0.5717
vt 0.3611 0.5903
vt 0.3797 0.5903
vt 0.3984 0.5903
vt 0.4170 0.5903
vt 0.4357 0.5903
vt 0.4544 0.5903
vt 0.5290 0.4970
vt 0.4730 0.4970
vt 0.4730 0.4783
vt 0.5290 0.4783
vt 0.5850 0.4783
vt 0.6410 0.4783
vt 0.6970 0.4783
vt 0.7530 0.4783
vt 0.8089 0.4783
vt 0.8649 0.4783
vt 0.8649 0.4970
vt 0.8089 0.4970
vt 0.7530 0.4970
vt 0.6970 0.4970
vt 0.6410 0.4970
vt 0.5850 0.4970
vt 0.4730 0.5903
vt 0.4730 0.6090
vt 0.0811 0.6090
vt 0.0811 0.5903
vt 0.4917 0.4690
vt 0.6037 0.4690
vt 0.6037 0.0771
vt 0.4917 0.0771
vt 0.4730 0.5997
vt 0.3611 0.5997
vt 0.3797 0.5997
vt 0.3984 0.5997
vt 0.4170 0.5997
vt 0.4357 0.5997
vt 0.4544 0.5997
vt 0.4917 0.4690
vt 0.6037 0.4690
vt 0.5850 0.4690
vt 0.5663 0.4690
vt 0.5477 0.4690
vt 0.5290 0.4690
vt 0.5103 0.4690
vt 0.4544 0.5530
vt 0.4357 0.5530
vt 0.4170 0.5530
vt 0.3984 0.5530
vt 0.3797 0.5530
vt 0.3611 0.5530
vt 0.3611 0.5343
vt 0.3797 0.5343
vt 0.3984 0.5343
vt 0.4170 0.5343
vt 0.4357 0.5343
vt 0.4544 0.5343
vt 0.6037 0.5717
vt 0.6037 0.5903
vt 0.5850 0.5903
vt 0.5663 0.5903
vt 0.5477 0.5903
vt 0.5290 0.5903
vt 0.5103 0.5903
vt 0.4917 0.5903
vt 0.4917 0.5717
vt 0.5103 0.5717
vt 0.5290 0.5717
vt 0.5477 0.5717
vt 0.5663 0.5717
vt 0.5850 0.5717
vt 0.4730 0.4970
vt 0.4730 0.4783
vt 0.4544 0.4783
vt 0.4357 0.4783
vt 0.4170 0.4783
vt 0.3984 0.4783
vt 0.3797 0.4783
vt 0.3611 0.4783
vt 0.3611 0.4970
vt 0.3797 0.4970
vt 0.3984 0.4970
vt 0.4170 0.4970
vt 0.4357 0.4970
vt 0.4544 0.4970
vt 0.6037 0.5157
vt 0.6037 0.5343
vt 0.5850 0.5343
vt 0.5663 0.5343
vt 0.5477 0.5343
vt 0.5290 0.5343
vt 0.5103 0.5343
vt 0.5103 0.5157
vt 0.5290 0.5157
vt 0.5477 0.5157
vt 0.5663 0.5157
vt 0.5850 0.5157
vt 0.4730 0.4410
vt 0.4730 0.4224
vt 0.4730 0.4037
vt 0.4170 0.4037
vt 0.3611 0.4037
vt 0.3051 0.4037
vt 0.2491 0.4037
vt 0.1931 0.4037
vt 0.1371 0.4037
vt 0.0811 0.4037
vt 0.0811 0.4224
vt 0.0811 0.4410
vt 0.0811 0.4597
vt 0.0811 0.4783
vt 0.0811 0.4970
vt 0.0811 0.5157
vt 0.0811 0.5343
vt 0.0811 0.5530
vt 0.1371 0.5530
vt 0.1931 0.5530
vt 0.2491 0.5530
vt 0.3051 0.5530
vt 0.3611 0.5530
vt 0.4170 0.5530
vt 0.4730 0.5530
vt 0.5850 0.5997
vt 0.6037 0.5997
vt 0.6037 0.6556
vt 0.6037 0.7116
vt 0.6037 0.7676
vt 0.6037 0.8236
vt 0.6037 0.8796
vt 0.6037 0.9356
vt 0.6037 0.9916
vt 0.5850 0.9916
vt 0.5663 0.9916
vt 0.5477 0.9916
vt 0.5290 0.9916
vt 0.5103 0.9916
vt 0.4917 0.9916
vt 0.4917 0.9356
vt 0.4917 0.8796
vt 0.4917 0.8236
vt 0.4917 0.7676
vt 0.4917 0.7116
vt 0.4917 0.6556
vt 0.4917 0.5997
vt 0.5103 0.5997
vt 0.5290 0.5997
vt 0.5477 0.5997
vt 0.5663 0.5997
vt 0.4730 0.5530
vt 0.4730 0.5343
vt 0.4544 0.5343
vt 0.4357 0.5343
vt 0.4170 0.5343
vt 0.3984 0.5343
vt 0.3797 0.5343
vt 0.3611 0.5343
vt 0.3611 0.5530
vt 0.3797 0.5530
vt 0.3984 0.5530
vt 0.4170 0.5530
vt 0.4357 0.5530
vt 0.4544 0.5530
vt 0.6037 0.4783
vt 0.6037 0.4970
vt 0.5850 0.4970
vt 0.5663 0.4970
vt 0.5477 0.4970
vt 0.5290 0.4970
vt 0.5103 0.4970
vt 0.5103 0.4783
vt 0.5290 0.4783
vt 0.5477 0.4783
vt 0.5663 0.4783
vt 0.5850 0.4783
vt 0.6037 0.5250
vt 0.6037 0.5810
vt 0.6037 0.6370
vt 0.6037 0.6930
vt 0.6037 0.7489
vt 0.6037 0.8049
vt 0.6037 0.8609
vt 0.6037 0.4690
vt 0.4917 0.4690
vt 0.5103 0.4690
vt 0.5290 0.4690
vt 0.5477 0.4690
vt 0.5663 0.4690
vt 0.5850 0.4690
vt 0.4917 0.4690
vt 0.6037 0.4690
vt 0.5850 0.4690
vt 0.5663 0.4690
vt 0.5477 0.4690
vt 0.5290 0.4690
vt 0.5103 0.4690
vt 0.4730 0.4690
vt 0.3611 0.4690
vt 0.3797 0.4690
vt 0.3984 0.4690
vt 0.4170 0.4690
vt 0.4357 0.4690
vt 0.4544 0.4690
vt 0.6037 0.5250
vt 0.6037 0.4690
vt 0.6037 0.8609
vt 0.6037 0.8049
vt 0.6037 0.7489
vt 0.6037 0.6930
vt 0.6037 0.6370
vt 0.6037 0.5810
vt 0.4917 0.4690
vt 0.5850 0.4690
vt 0.5663 0.4690
vt 0.5477 0.4690
vt 0.5290 0.4690
vt 0.5103 0.4690
vt 0.6037 0.4690
vt 0.4917 0.4690
vt 0.5103 0.4690
vt 0.5290 0.4690
vt 0.5477 0.4690
vt 0.5663 0.4690
vt 0.5850 0.4690
vt 0.6037 0.5250
vt 0.6037 0.5810
vt 0.6037 0.6370
vt 0.6037 0.6930
vt 0.6037 0.7489
vt 0.6037 0.8049
vt 0.6037 0.8609
vt 0.4917 0.4690
vt 0.6037 0.4690
vt 0.5850 0.4690
vt 0.5663 0.4690
vt 0.5477 0.4690
vt 0.5290 0.4690
vt 0.5103 0.4690
vt 0.4730 0.4690
vt 0.3611 0.4690
vt 0.3611 0.0771
vt 0.4730 0.0771
vt 0.4730 0.5530
vt 0.4730 0.5717
vt 0.0811 0.5717
vt 0.0811 0.5530
vt 0.4917 0.4690
vt 0.6037 0.4690
vt 0.6037 0.0771
vt 0.4917 0.0771
vt 0.4917 0.8609
vt 0.6037 0.5250
vt 0.6037 0.4690
vt 0.6037 0.8609
vt 0.6037 0.8049
vt 0.6037 0.7489
vt 0.6037 0.6930
vt 0.6037 0.6370
vt 0.6037 0.5810
vt 0.4730 0.4690
vt 0.3611 0.4690
vt 0.3797 0.4690
vt 0.3984 0.4690
vt 0.4170 0.4690
vt 0.4357 0.4690
vt 0.4544 0.4690
vt 0.4917 0.4690
vt 0.5850 0.4690
vt 0.5663 0.4690
vt 0.5477 0.4690
vt 0.5290 0.4690
vt 0.5103 0.4690
vt 0.6037 0.5997
vt 0.4917 0.5997
vt 0.5103 0.5997
vt 0.5290 0.5997
vt 0.5477 0.5997
vt 0.5663 0.5997
vt 0.5850 0.5997
vt 0.4917 0.4690
vt 0.6037 0.4690
vt 0.5850 0.4690
vt 0.5663 0.4690
vt 0.5477 0.4690
vt 0.5290 0.4690
vt 0.5103 0.4690
vt 0.4730 0.5343
vt 0.4730 0.5157
vt 0.4544 0.5157
vt 0.4357 0.5157
vt 0.4170 0.5157
vt 0.3984 0.5157
vt 0.3797 0.5157
vt 0.3611 0.5157
vt 0.3611 0.5343
vt 0.3797 0.5343
vt 0.3984 0.5343
vt 0.4170 0.5343
vt 0.4357 0.5343
vt 0.4544 0.5343
vt 0.6037 0.5250
vt 0.6037 0.5810
vt 0.6037 0.6370
vt 0.6037 0.6930
vt 0.6037 0.7489
vt 0.6037 0.8049
vt 0.6037 0.8609
vt 0.6037 0.4690
vt 0.4917 0.4690
vt 0.4917 0.8609
vt 0.4730 0.4970
vt 0.4730 0.5157
vt 0.0811 0.5157
vt 0.0811 0.4970
vt 0.6037 0.5997
vt 0.6037 0.6556
vt 0.6037 0.7116
vt 0.6037 0.9916
vt 0.4730 0.2078
vt 0.3611 0.2078
vt 0.4917 0.5530
vt 0.6037 0.5250
vt 0.6037 0.4690
vt 0.6223 0.4690
vt 0.6223 0.5250
vt 0.6223 0.5810
vt 0.6223 0.6370
vt 0.6223 0.6930
vt 0.6223 0.7489
vt 0.6223 0.8049
vt 0.6223 0.8609
vt 0.6037 0.8609
vt 0.6037 0.8049
vt 0.6037 0.7489
vt 0.6037 0.6930
vt 0.6037 0.6370
vt 0.6037 0.5810
vt 0.4917 0.4690
vt 0.4730 0.4690
vt 0.4730 0.5250
vt 0.4730 0.5810
vt 0.4730 0.6370
vt 0.4730 0.6930
vt 0.4730 0.7489
vt 0.4730 0.8049
vt 0.4730 0.8609
vt 0.4917 0.8609
vt 0.5103 0.8609
vt 0.5290 0.8609
vt 0.5477 0.8609
vt 0.5663 0.8609
vt 0.5850 0.8609
vt 0.6037 0.8609
vt 0.6037 0.8049
vt 0.6037 0.7489
vt 0.6037 0.6930
vt 0.6037 0.6370
vt 0.6037 0.5810
vt 0.6037 0.5250
vt 0.6037 0.4690
vt 0.5850 0.4690
vt 0.5663 0.4690
vt 0.5477 0.4690
vt 0.5290 0.4690
vt 0.5103 0.4690
vn 0.0000 0.0000 -1.0000
vn 1.0000 0.0000 0.0000
vn -0.0000 0.0000 1.0000
vn 0.0000 -1.0000 0.0000
vn 0.0000 1.0000 0.0000
vn -1.0000 -0.0000 -0.0000
vn 0.0000 0.9941 0.1087
vn 0.0000 -0.9941 0.1087
vn 0.0000 0.7526 0.6585
vn 0.0000 -0.1871 -0.9823
usemtl Material.002
s off
f 116/1/1 20/2/1 4/3/1 51/4/1
f 195/5/1 86/6/1 56/7/1 196/8/1
f 86/6/1 92/9/1 55/10/1 56/7/1
f 92/9/1 98/11/1 54/12/1 55/10/1
f 98/11/1 104/13/1 53/14/1 54/12/1
f 104/15/1 110/16/1 52/17/1 53/18/1
f 110/16/1 116/1/1 51/4/1 52/17/1
f 62/19/2 6/20/2 38/21/2 188/22/2 187/23/2 186/24/2 185/25/2 184/26/2 183/27/2 26/28/2 5/29/2 57/30/2 58/31/2 59/32/2 60/33/2 61/34/2
f 158/35/2 33/36/2 2/37/2 14/38/2 13/39/2 12/40/2 11/41/2 10/42/2 9/43/2 1/44/2 21/45/2 153/46/2 154/47/2 155/48/2 156/49/2 157/50/2
f 152/51/3 197/52/3 74/53/3 7/54/3 198/55/3 50/56/3 49/57/3 48/58/3 47/59/3 46/60/3 45/61/3 3/62/3 32/63/3 122/64/3 128/65/3 134/66/3 140/67/3 146/68/3
f 194/69/2 74/70/2 197/71/2 199/72/2 204/73/2 203/74/2 202/75/2 201/76/2 200/77/2 195/78/2 68/79/2 189/80/2 190/81/2 191/82/2 192/83/2 193/84/2
f 170/85/2 35/86/2 34/87/2 164/88/2 163/89/2 162/90/2 161/91/2 160/92/2 159/93/2 22/94/2 23/95/2 165/96/2 166/97/2 167/98/2 168/99/2 169/100/2
f 23/101/1 22/102/1 105/103/1 106/104/1 107/105/1 108/106/1 109/107/1 110/108/1 104/109/1 103/110/1 102/111/1 101/112/1 100/113/1 99/114/1
f 182/115/2 37/116/2 36/117/2 176/118/2 175/119/2 174/120/2 173/121/2 172/122/2 171/123/2 24/124/2 25/125/2 177/126/2 178/127/2 179/128/2 180/129/2 181/130/2
f 104/131/2 98/132/2 140/133/2 134/134/2
f 98/135/4 24/136/4 36/137/4 140/138/4
f 26/139/5 86/140/5 85/141/5 84/142/5 83/143/5 82/144/5 81/145/5
f 152/146/1 38/147/1 147/148/1 148/149/1 149/150/1 150/151/1 151/152/1
f 188/22/4 38/21/4 26/28/4 183/27/4 184/26/4 185/25/4 186/24/4 187/23/4
f 2/37/3 33/36/3 117/153/3 118/154/3 119/155/3 120/156/3 121/157/3 122/158/3 32/159/3 31/160/3 30/161/3 29/162/3 28/163/3 27/164/3
f 34/165/3 35/166/3 129/167/3 130/168/3 131/169/3 132/170/3 133/171/3 134/172/3 128/173/3 127/174/3 126/175/3 125/176/3 124/177/3 123/178/3
f 25/179/1 24/180/1 93/181/1 94/182/1 95/183/1 96/184/1 97/185/1 98/186/1 92/187/1 91/188/1 90/189/1 89/190/1 88/191/1 87/192/1
f 38/193/3 6/194/3 69/195/3 70/196/3 71/197/3 72/198/3 73/199/3 197/52/3 152/51/3 151/200/3 150/201/3 149/202/3 148/203/3 147/204/3
f 196/8/6 56/7/6 55/10/6 54/12/6 53/14/6 52/205/6 51/206/6 4/207/6 44/208/6 43/209/6 42/210/6 41/211/6 40/212/6 39/213/6 3/214/6 45/215/6 46/216/6 47/217/6 48/218/6 49/219/6 50/220/6 198/221/6 7/222/6 75/223/6 76/224/6 77/225/6 78/226/6 79/227/6 80/228/6 8/229/6
f 69/230/5 6/231/5 62/232/5 61/233/5 60/234/5 59/235/5 58/236/5 57/237/5 5/238/5 63/239/5 64/240/5 65/241/5 66/242/5 67/243/5 195/244/5 200/245/5 201/246/5 202/247/5 203/248/5 204/249/5 199/250/5 197/251/5 73/252/5 72/253/5 71/254/5 70/255/5
f 21/256/1 1/257/1 15/258/1 16/259/1 17/260/1 18/261/1 19/262/1 20/263/1 116/264/1 115/265/1 114/266/1 113/267/1 112/268/1 111/269/1
f 36/270/3 37/271/3 141/272/3 142/273/3 143/274/3 144/275/3 145/276/3 146/68/3 140/67/3 139/277/3 138/278/3 137/279/3 136/280/3 135/281/3
f 158/282/3 157/283/3 156/284/3 155/285/3 154/286/3 153/287/3 21/288/3 33/289/3
f 33/289/3 122/290/3 121/291/3 120/292/3 119/293/3 118/294/3 117/295/3
f 116/296/4 21/297/4 111/298/4 112/299/4 113/300/4 114/301/4 115/302/4
f 22/303/7 110/304/7 109/305/7 108/306/7 107/307/7 106/308/7 105/309/7
f 164/310/5 34/311/5 22/312/5 159/313/5 160/314/5 161/315/5 162/316/5 163/317/5
f 128/318/3 34/311/3 123/319/3 124/320/3 125/321/3 126/322/3 127/323/3
f 35/324/3 134/325/3 133/326/3 132/327/3 131/328/3 130/329/3 129/330/3
f 170/331/4 169/332/4 168/333/4 167/334/4 166/335/4 165/336/4 23/337/4 35/324/4
f 104/338/8 23/339/8 99/340/8 100/341/8 101/342/8 102/343/8 103/344/8
f 21/345/5 116/346/5 122/347/5 33/348/5
f 116/349/2 110/350/2 128/351/2 122/352/2
f 110/353/4 22/354/4 34/355/4 128/356/4
f 134/325/5 35/324/5 23/337/5 104/357/5
f 176/358/4 36/359/4 24/360/4 171/361/4 172/362/4 173/363/4 174/364/4 175/365/4
f 24/366/7 98/367/7 97/368/7 96/369/7 95/370/7 94/371/7 93/372/7
f 140/373/3 36/359/3 135/374/3 136/375/3 137/376/3 138/377/3 139/378/3
f 37/379/9 146/380/9 145/381/9 144/382/9 143/383/9 142/384/9 141/385/9
f 92/386/10 25/387/10 87/388/10 88/389/10 89/390/10 90/391/10 91/392/10
f 5/393/1 26/394/1 81/395/1 82/396/1 83/397/1 84/398/1 85/399/1 86/400/1 195/401/1 67/402/1 66/403/1 65/404/1 64/405/1 63/406/1
f 182/407/4 181/408/4 180/409/4 179/410/4 178/411/4 177/412/4 25/413/4 37/414/4
f 146/415/5 37/414/5 25/413/5 92/416/5
f 92/417/2 86/418/2 152/419/2 146/420/2
f 38/421/3 188/422/3 187/423/3 26/424/3
f 26/139/4 38/425/4 152/426/4 86/140/4
f 8/229/1 68/427/1 195/5/1 196/8/1
f 75/428/5 7/429/5 74/430/5 194/431/5 193/432/5 192/433/5 191/434/5 190/435/5 189/436/5 68/437/5 8/438/5 80/439/5 79/440/5 78/441/5 77/442/5 76/443/5
f 32/444/4 3/445/4 39/446/4 40/447/4 41/448/4 42/449/4 43/450/4 44/451/4 4/452/4 20/453/4 19/454/4 18/455/4 17/456/4 16/457/4 15/458/4 1/459/4 9/460/4 10/461/4 11/462/4 12/463/4 13/464/4 14/465/4 2/466/4 27/467/4 28/468/4 29/469/4 30/470/4 31/471/4
